<svg xmlns="http://www.w3.org/2000/svg" width="35" height="48" viewBox="0 0 60.014 78.019">
    <g id="Group_34" data-name="Group 34" transform="translate(-281 -218.786)">
        <g id="map-marker" transform="translate(284 221.786)" fill="#22CF00">
            <path d="M 27.00705909729004 73.51882171630859 C 25.40677070617676 73.51882171630859 23.90812492370605 72.73403930664063 22.9981803894043 71.41951751708984 C 19.35519218444824 66.13826751708984 16.28910255432129 61.77031326293945 13.58394718170166 57.91654586791992 C 7.418503284454346 49.13324737548828 3.697069883346558 43.83169174194336 1.478647708892822 39.52884674072266 C 0.3349365293979645 37.31050109863281 -0.4113968014717102 35.35001373291016 -0.870107889175415 33.35909271240234 C -1.305730104446411 31.46837043762207 -1.499996781349182 29.50932502746582 -1.499996781349182 27.00704765319824 C -1.499996781349182 23.15926933288574 -0.7460745573043823 19.42580223083496 0.7408365607261658 15.91034698486328 C 2.176703214645386 12.51555824279785 4.231958866119385 9.467058181762695 6.849503040313721 6.849503040313721 C 9.467059135437012 4.231958389282227 12.51555919647217 2.176702737808228 15.9103479385376 0.7408361434936523 C 19.42580413818359 -0.746074914932251 23.15926933288574 -1.499997138977051 27.00704765319824 -1.499997138977051 C 30.85482597351074 -1.499997138977051 34.58830261230469 -0.746074914932251 38.103759765625 0.7408361434936523 C 41.49853515625 2.176702737808228 44.54704666137695 4.231958389282227 47.16459274291992 6.849503040313721 C 49.78213500976563 9.467058181762695 51.8373908996582 12.51555824279785 53.27325820922852 15.91034698486328 C 54.76016998291016 19.42580223083496 55.51409149169922 23.15926933288574 55.51409149169922 27.00704765319824 C 55.51409149169922 29.50932502746582 55.31982421875 31.46837043762207 54.88420486450195 33.35908126831055 C 54.42549133300781 35.35001373291016 53.67915725708008 37.31050109863281 52.53544616699219 39.52884674072266 C 50.31703567504883 43.83169174194336 46.59560394287109 49.13324737548828 40.43016052246094 57.91653442382813 C 37.72500228881836 61.77031326293945 34.65891265869141 66.13825988769531 31.01732635498047 71.41748809814453 C 30.10595893859863 72.73403930664063 28.60731506347656 73.51882171630859 27.00705909729004 73.51882171630859 Z" stroke="none"/>
            <path d="M 27.00705718994141 72.01882171630859 C 28.05941390991211 72.01882171630859 29.11206436157227 71.53438568115234 29.78258895874023 70.56576538085938 C 50.2204475402832 40.93692016601563 54.01409530639648 37.89609527587891 54.01409530639648 27.00704765319824 C 54.01409530639648 12.0914249420166 41.92267227172852 1.531623411210603e-06 27.00704765319824 1.531623411210603e-06 C 12.09142398834229 1.531623411210603e-06 5.943746828052099e-07 12.0914249420166 5.943746828052099e-07 27.00704765319824 C 5.943746828052099e-07 37.89609527587891 3.793647766113281 40.93692016601563 24.23150634765625 70.56576538085938 C 24.90212440490723 71.5345458984375 25.95444297790527 72.01882171630859 27.00705718994141 72.01882171630859 M 27.00705909729004 75.01882171630859 C 24.91460037231445 75.01882171630859 22.95488357543945 73.99243927001953 21.76482391357422 72.27324676513672 C 18.1239185333252 66.99501037597656 15.05969429016113 62.62971878051758 12.35617733001709 58.77829742431641 C 6.154153347015381 49.94287109375 2.410635948181152 44.60984802246094 0.1454005986452103 40.21621322631836 C -2.147505283355713 35.76887130737305 -2.999999523162842 32.18882369995117 -2.999999523162842 27.00704765319824 C -2.999999523162842 22.95743751525879 -2.206211090087891 19.02736663818359 -0.6406700015068054 15.32601356506348 C 0.8708240985870361 11.75243663787842 3.034024238586426 8.543672561645508 5.78884744644165 5.788848400115967 C 8.543671607971191 3.034024953842163 11.7524356842041 0.8708250522613525 15.32601261138916 -0.640669047832489 C 19.02736473083496 -2.206210136413574 22.95743560791016 -2.999998569488525 27.00704765319824 -2.999998569488525 C 31.05665969848633 -2.999998569488525 34.98672866821289 -2.206210136413574 38.68808364868164 -0.640669047832489 C 42.26165771484375 0.8708250522613525 45.47042465209961 3.034024953842163 48.22524642944336 5.788848400115967 C 50.98007202148438 8.543672561645508 53.14327239990234 11.75243663787842 54.65476608276367 15.32601356506348 C 56.22030639648438 19.02736663818359 57.01409530639648 22.95743751525879 57.01409530639648 27.00704765319824 C 57.01409530639648 32.18882369995117 56.16160202026367 35.76887130737305 53.86869430541992 40.21621322631836 C 51.60345840454102 44.60984802246094 47.85994338989258 49.94287109375 41.65791702270508 58.77829742431641 C 38.95439910888672 62.62971878051758 35.89017868041992 66.99501037597656 32.25205993652344 72.26920318603516 C 31.05914115905762 73.99246215820313 29.09944725036621 75.01882171630859 27.00705909729004 75.01882171630859 Z" stroke="none" fill="#fff"/>
        </g>
        <path id="plus-circle" d="M26.963,8A18.963,18.963,0,1,0,45.926,26.963,18.96,18.96,0,0,0,26.963,8ZM37.974,29.1a.92.92,0,0,1-.918.918H30.021v7.035a.92.92,0,0,1-.918.918H24.822a.92.92,0,0,1-.918-.918V30.021H16.87a.92.92,0,0,1-.918-.918V24.822a.92.92,0,0,1,.918-.918H23.9V16.87a.92.92,0,0,1,.918-.918H29.1a.92.92,0,0,1,.918.918V23.9h7.035a.92.92,0,0,1,.918.918Z" transform="translate(284 222.143)" fill="#fff"/>
    </g>
</svg>