<svg width="481" height="148" viewBox="0 0 481 148" fill="none" xmlns="http://www.w3.org/2000/svg">
<path d="M189.946 54.7051C186.08 54.7051 182.589 54.0234 179.473 52.66C176.38 51.2724 173.831 49.3004 171.826 46.7441C169.845 44.1635 168.589 41.0959 168.057 37.5415L178.349 36.0077C179.074 39.0266 180.572 41.3516 182.843 42.9827C185.114 44.6139 187.699 45.4294 190.598 45.4294C192.217 45.4294 193.787 45.1738 195.309 44.6626C196.831 44.1513 198.075 43.3966 199.042 42.3984C200.032 41.4003 200.527 40.1708 200.527 38.7101C200.527 38.1745 200.443 37.6632 200.274 37.1763C200.129 36.6651 199.875 36.1903 199.513 35.7521C199.15 35.3139 198.631 34.9 197.954 34.5105C197.302 34.121 196.469 33.7679 195.454 33.4515L181.901 29.4345C180.886 29.1423 179.702 28.7284 178.349 28.1928C177.02 27.6572 175.728 26.8903 174.472 25.8922C173.215 24.894 172.164 23.5794 171.319 21.9482C170.497 20.2927 170.087 18.2112 170.087 15.7036C170.087 12.1735 170.969 9.23987 172.732 6.90271C174.496 4.56554 176.851 2.82484 179.799 1.6806C182.746 0.53636 186.008 -0.0235858 189.583 0.000760866C193.183 0.0494512 196.396 0.670261 199.223 1.86319C202.049 3.05612 204.417 4.79682 206.326 7.0853C208.234 9.34942 209.611 12.1248 210.457 15.4115L199.803 17.2374C199.416 15.5332 198.703 14.0968 197.665 12.9282C196.626 11.7596 195.381 10.871 193.932 10.2624C192.507 9.65375 191.009 9.32508 189.438 9.27639C187.892 9.2277 186.43 9.44681 185.053 9.93372C183.7 10.3963 182.589 11.078 181.719 11.9787C180.874 12.8795 180.451 13.9507 180.451 15.1923C180.451 16.3366 180.801 17.2739 181.502 18.0042C182.203 18.7103 183.084 19.2824 184.147 19.7206C185.21 20.1588 186.298 20.524 187.409 20.8161L196.469 23.2994C197.822 23.6646 199.319 24.1515 200.962 24.7601C202.605 25.3444 204.175 26.1722 205.673 27.2434C207.195 28.2902 208.44 29.6779 209.406 31.4064C210.396 33.135 210.892 35.3261 210.892 37.9797C210.892 40.8038 210.3 43.2749 209.116 45.3929C207.956 47.4866 206.386 49.2273 204.405 50.615C202.424 51.9784 200.177 53.0009 197.665 53.6826C195.176 54.3642 192.603 54.7051 189.946 54.7051Z" fill="white"/>
<path d="M215.233 53.6095L231.178 1.02327H245.891L261.836 53.6095H251.689L237.484 7.23137L238.433 10.3312L239.368 7.23137L225.38 53.6095H215.233ZM228.684 42.654L231.482 33.3784H245.492L248.334 42.654H228.684Z" fill="white"/>
<path d="M268.331 53.6095V1.02327H278.333L301.019 36.0808V1.02327H311.021V53.6095H301.019L278.333 18.552V53.6095H268.331Z" fill="white"/>
<path d="M317.508 53.6095L333.454 1.02327H348.166L364.112 53.6095H353.965L339.759 7.23137L340.709 10.3312L341.643 7.23137L327.655 53.6095H317.508ZM330.96 42.654L333.757 33.3784H347.768L350.609 42.654H330.96Z" fill="white"/>
<path d="M370.607 53.6095V1.02327H392.64C393.147 1.02327 393.824 1.04762 394.669 1.09631C395.539 1.12065 396.312 1.19369 396.989 1.31542C400.105 1.80233 402.654 2.83701 404.635 4.41946C406.64 6.00192 408.114 7.99825 409.056 10.4085C409.998 12.7943 410.469 15.4601 410.469 18.4059C410.469 22.8125 409.382 26.586 407.208 29.7266C405.034 32.8428 401.627 34.7661 396.989 35.4965L392.64 35.7886H380.464V53.6095H370.607ZM400.033 53.6095L389.741 32.2098L391.462 35.7886H392.64L396.989 35.4965L398.083 35.2973L399.533 34.9414L400.71 34.5611L401.773 34.1339L399.888 30.2379L411.194 53.6095H400.033ZM380.464 26.513H392.205C392.712 26.513 393.268 26.4886 393.872 26.44C394.476 26.3913 395.032 26.2939 395.539 26.1478C396.868 25.7826 397.895 25.174 398.619 24.3219C399.344 23.4455 399.839 22.4838 400.105 21.437C400.395 20.3658 400.54 19.3554 400.54 18.4059C400.54 17.4565 400.395 16.4583 400.105 15.4115C399.839 14.3403 399.344 13.3786 398.619 12.5265C397.895 11.6501 396.868 11.0293 395.539 10.6641C395.032 10.518 394.476 10.4206 393.872 10.3719C393.268 10.3232 392.712 10.2989 392.205 10.2989H380.464V26.513Z" fill="white"/>
<path d="M419.886 53.6095V1.02327H429.743V53.6095H419.886Z" fill="white"/>
<path d="M440.607 53.6095V1.02327H462.64C463.148 1.02327 463.824 1.04762 464.67 1.09631C465.539 1.12065 466.313 1.19369 466.989 1.31542C470.106 1.80233 472.654 2.83701 474.635 4.41946C476.641 6.00192 478.114 7.99825 479.056 10.4085C479.999 12.7943 480.47 15.4601 480.47 18.4059C480.47 21.3517 479.987 24.0298 479.02 26.44C478.078 28.8258 476.604 30.81 474.599 32.3924C472.618 33.9749 470.081 35.0096 466.989 35.4965C466.313 35.5939 465.539 35.6669 464.67 35.7156C463.8 35.7643 463.124 35.7886 462.64 35.7886H450.464V53.6095H440.607ZM450.464 26.513H462.205C462.713 26.513 463.268 26.4886 463.872 26.44C464.476 26.3913 465.032 26.2939 465.539 26.1478C466.868 25.7826 467.895 25.174 468.62 24.3219C469.345 23.4455 469.84 22.4838 470.106 21.437C470.395 20.3658 470.54 19.3554 470.54 18.4059C470.54 17.4565 470.395 16.4583 470.106 15.4115C469.84 14.3403 469.345 13.3786 468.62 12.5265C467.895 11.6501 466.868 11.0293 465.539 10.6641C465.032 10.518 464.476 10.4206 463.872 10.3719C463.268 10.3232 462.713 10.2989 462.205 10.2989H450.464V26.513Z" fill="white"/>
<path d="M47.3732 128.746C39.0564 128.746 31.5549 127.322 24.8689 124.473C18.2372 121.625 12.747 117.571 8.39834 112.313C4.10404 106.999 1.3046 100.727 0 93.4966L15.0029 91.1137C16.9054 98.5634 20.8464 104.397 26.8258 108.615C32.8595 112.778 39.9533 114.86 48.107 114.86C53.3797 114.86 58.1361 114.038 62.376 112.395C66.6703 110.697 70.0677 108.286 72.5682 105.164C75.0687 102.042 76.3189 98.3443 76.3189 94.0717C76.3189 91.4424 75.8569 89.1965 74.9328 87.3341C74.063 85.4169 72.84 83.801 71.2636 82.4863C69.7416 81.1169 68.0021 79.9665 66.0452 79.0353C64.0883 78.1041 62.0499 77.3372 59.9299 76.7347L30.0057 67.7786C26.7442 66.7926 23.5915 65.5601 20.5474 64.0811C17.5033 62.5474 14.7854 60.6575 12.3937 58.4117C10.0019 56.111 8.09937 53.3721 6.68606 50.1951C5.27275 46.9632 4.56609 43.1562 4.56609 38.774C4.56609 31.7625 6.35991 25.7918 9.94755 20.8618C13.5895 15.8771 18.509 12.07 24.7058 9.44072C30.9026 6.81141 37.8877 5.52414 45.6609 5.57891C53.5428 5.63369 60.5822 7.05791 66.779 9.85155C73.0302 12.5904 78.1943 16.5344 82.2711 21.6835C86.4024 26.8325 89.1746 32.995 90.5879 40.1708L75.1774 42.8823C74.362 38.0619 72.541 33.9262 69.7144 30.4752C66.9421 26.9695 63.4632 24.2854 59.2776 22.4229C55.092 20.5057 50.4988 19.5198 45.4978 19.465C40.7143 19.4102 36.3928 20.1771 32.5334 21.7656C28.6739 23.3542 25.6027 25.5726 23.3197 28.4211C21.0366 31.2147 19.8951 34.4466 19.8951 38.1167C19.8951 41.732 20.9279 44.6625 22.9935 46.9084C25.0591 49.0995 27.5868 50.8524 30.5765 52.167C33.6205 53.4269 36.5831 54.4677 39.4641 55.2894L61.8053 61.7805C64.3601 62.4926 67.2954 63.4786 70.6113 64.7384C73.9815 65.9983 77.243 67.7786 80.3958 70.0792C83.5485 72.3251 86.1577 75.3379 88.2234 79.1175C90.289 82.8423 91.3218 87.5532 91.3218 93.25C91.3218 98.9469 90.1803 104.014 87.8972 108.451C85.6685 112.888 82.5429 116.613 78.5204 119.625C74.4979 122.583 69.8231 124.829 64.496 126.363C59.1689 127.951 53.4613 128.746 47.3732 128.746Z" fill="white" fill-opacity="0.8"/>
<path d="M93.5867 140.523C83.7418 140.523 75.4069 138.301 68.5819 133.858C61.7569 129.415 56.5627 123.298 52.9992 115.508C49.4962 107.656 47.6842 98.6487 47.5634 88.4844C47.6842 78.1376 49.5566 69.0689 53.1804 61.2783C56.8043 53.4269 62.0287 47.3405 68.8537 43.0192C75.6787 38.637 83.9532 36.4459 93.6773 36.4459C103.583 36.4459 112.189 38.8805 119.497 43.7496C126.866 48.6187 131.909 55.2833 134.627 63.7433L121.581 67.9429C119.286 62.0391 115.632 57.4744 110.619 54.2486C105.666 50.9619 99.9889 49.3186 93.5867 49.3186C86.3993 49.3186 80.4501 50.9924 75.7391 54.3399C71.028 57.6265 67.525 62.2217 65.2298 68.1255C62.9347 74.0293 61.7569 80.8156 61.6965 88.4844C61.8173 100.292 64.5353 109.787 69.8503 116.969C75.1653 124.09 83.0774 127.65 93.5867 127.65C100.23 127.65 105.878 126.129 110.528 123.085C115.239 119.981 118.803 115.477 121.219 109.574L134.627 113.591C131.003 122.355 125.688 129.05 118.682 133.676C111.676 138.24 103.311 140.523 93.5867 140.523Z" fill="white"/>
<path d="M199.199 148C192.285 148 186.315 146.484 181.289 143.452C176.295 140.419 172.438 136.178 169.717 130.726C167.028 125.274 165.684 118.936 165.684 111.71C165.684 104.484 167.028 98.1456 169.717 92.6941C172.438 87.2425 176.295 83.0006 181.289 79.9684C186.315 76.9361 192.285 75.42 199.199 75.42C207.138 75.42 213.796 77.4039 219.174 81.3716C224.584 85.3393 228.393 90.7102 230.602 97.4843L217.445 101.162C216.165 96.936 214.004 93.6618 210.963 91.3392C207.922 88.9844 204.001 87.807 199.199 87.807C194.814 87.807 191.148 88.7909 188.203 90.7586C185.29 92.7263 183.098 95.5005 181.625 99.0811C180.153 102.662 179.416 106.871 179.416 111.71C179.416 116.549 180.153 120.758 181.625 124.339C183.098 127.92 185.29 130.694 188.203 132.661C191.148 134.629 194.814 135.613 199.199 135.613C204.001 135.613 207.922 134.436 210.963 132.081C214.004 129.726 216.165 126.452 217.445 122.258L230.602 125.936C228.393 132.71 224.584 138.081 219.174 142.048C213.796 146.016 207.138 148 199.199 148Z" fill="white"/>
<path d="M242.135 146.548V76.8716H255.195V134.258H284.966V146.548H242.135Z" fill="white"/>
<path d="M294.09 146.548V76.8716H307.151V146.548H294.09Z" fill="white"/>
<path d="M321.546 146.548V76.8716H334.798L364.857 123.323V76.8716H378.109V146.548H364.857L334.798 100.097V146.548H321.546Z" fill="white"/>
<path d="M392.467 146.548V76.8716H405.528V146.548H392.467Z" fill="white"/>
<path d="M449.597 148C442.683 148 436.713 146.484 431.687 143.452C426.693 140.419 422.836 136.178 420.115 130.726C417.426 125.274 416.082 118.936 416.082 111.71C416.082 104.484 417.426 98.1456 420.115 92.6941C422.836 87.2425 426.693 83.0006 431.687 79.9684C436.713 76.9361 442.683 75.42 449.597 75.42C457.536 75.42 464.194 77.4039 469.572 81.3716C474.982 85.3393 478.791 90.7102 481 97.4843L467.844 101.162C466.563 96.936 464.402 93.6618 461.361 91.3392C458.32 88.9844 454.399 87.807 449.597 87.807C445.212 87.807 441.547 88.7909 438.602 90.7586C435.689 92.7263 433.496 95.5005 432.023 99.0811C430.551 102.662 429.814 106.871 429.814 111.71C429.814 116.549 430.551 120.758 432.023 124.339C433.496 127.92 435.689 130.694 438.602 132.661C441.547 134.629 445.212 135.613 449.597 135.613C454.399 135.613 458.32 134.436 461.361 132.081C464.402 129.726 466.563 126.452 467.844 122.258L481 125.936C478.791 132.71 474.982 138.081 469.572 142.048C464.194 146.016 457.536 148 449.597 148Z" fill="white"/>
</svg>
