<svg width="1742" height="811" viewBox="0 0 1742 811" fill="none" xmlns="http://www.w3.org/2000/svg">
<path d="M134.8 300C113.467 300 94.2004 296.267 77.0004 288.8C59.9337 281.2 45.8671 270.4 34.8004 256.4C23.8671 242.267 16.9337 225.467 14.0004 206L70.8004 197.6C74.8004 214.133 83.0671 226.867 95.6004 235.8C108.134 244.733 122.4 249.2 138.4 249.2C147.334 249.2 156 247.8 164.4 245C172.8 242.2 179.667 238.067 185 232.6C190.467 227.133 193.2 220.4 193.2 212.4C193.2 209.467 192.734 206.667 191.8 204C191 201.2 189.6 198.6 187.6 196.2C185.6 193.8 182.734 191.533 179 189.4C175.4 187.267 170.8 185.333 165.2 183.6L90.4004 161.6C84.8004 160 78.2671 157.733 70.8004 154.8C63.4671 151.867 56.3337 147.667 49.4004 142.2C42.4671 136.733 36.6671 129.533 32.0004 120.6C27.4671 111.533 25.2004 100.133 25.2004 86.4C25.2004 67.0667 30.0671 51 39.8004 38.2C49.5337 25.4 62.5337 15.8667 78.8004 9.60004C95.0671 3.33337 113.067 0.266702 132.8 0.400041C152.667 0.666704 170.4 4.0667 186 10.6C201.6 17.1334 214.667 26.6667 225.2 39.2C235.734 51.6 243.334 66.8 248 84.8L189.2 94.8C187.067 85.4667 183.134 77.6 177.4 71.2C171.667 64.8 164.8 59.9334 156.8 56.6C148.934 53.2667 140.667 51.4667 132 51.2C123.467 50.9334 115.4 52.1334 107.8 54.8C100.334 57.3334 94.2004 61.0667 89.4004 66C84.7337 70.9334 82.4004 76.8 82.4004 83.6C82.4004 89.8667 84.3337 95 88.2004 99C92.0671 102.867 96.9337 106 102.8 108.4C108.667 110.8 114.667 112.8 120.8 114.4L170.8 128C178.267 130 186.534 132.667 195.6 136C204.667 139.2 213.334 143.733 221.6 149.6C230 155.333 236.867 162.933 242.2 172.4C247.667 181.867 250.4 193.867 250.4 208.4C250.4 223.867 247.134 237.4 240.6 249C234.2 260.467 225.534 270 214.6 277.6C203.667 285.067 191.267 290.667 177.4 294.4C163.667 298.133 149.467 300 134.8 300Z" fill="#458FF6"/>
<path d="M274.36 294L362.36 6.00004H443.56L531.56 294H475.56L397.16 40H407.56L330.36 294H274.36ZM327.16 234V183.2H479.16V234H327.16Z" fill="#458FF6"/>
<path d="M567.407 294V6.00004H622.607L747.807 198V6.00004H803.007V294H747.807L622.607 102V294H567.407Z" fill="#458FF6"/>
<path d="M838.813 294L926.813 6.00004H1008.01L1096.01 294H1040.01L961.613 40H972.013L894.813 294H838.813ZM891.613 234V183.2H1043.61V234H891.613Z" fill="#458FF6"/>
<path d="M1131.86 294V6.00004H1253.46C1256.26 6.00004 1259.99 6.13337 1264.66 6.40004C1269.46 6.53337 1273.73 6.93338 1277.46 7.60004C1294.66 10.2667 1308.73 15.9334 1319.66 24.6C1330.73 33.2667 1338.86 44.2 1344.06 57.4C1349.26 70.4667 1351.86 85.0667 1351.86 101.2C1351.86 125.333 1345.86 146 1333.86 163.2C1321.86 180.267 1303.06 190.8 1277.46 194.8L1253.46 196.4H1186.26V294H1131.86ZM1294.26 294L1237.46 176.8L1293.46 166L1355.86 294H1294.26ZM1186.26 145.6H1251.06C1253.86 145.6 1256.93 145.467 1260.26 145.2C1263.59 144.933 1266.66 144.4 1269.46 143.6C1276.79 141.6 1282.46 138.267 1286.46 133.6C1290.46 128.8 1293.19 123.533 1294.66 117.8C1296.26 111.933 1297.06 106.4 1297.06 101.2C1297.06 96 1296.26 90.5334 1294.66 84.8C1293.19 78.9334 1290.46 73.6667 1286.46 69.0001C1282.46 64.2001 1276.79 60.8001 1269.46 58.8001C1266.66 58 1263.59 57.4667 1260.26 57.2001C1256.93 56.9334 1253.86 56.8 1251.06 56.8H1186.26V145.6Z" fill="#458FF6"/>
<path d="M1403.83 294V6.00004H1458.23V294H1403.83Z" fill="#458FF6"/>
<path d="M1518.19 294V6.00004H1639.79C1642.59 6.00004 1646.32 6.13337 1650.99 6.40004C1655.79 6.53337 1660.05 6.93338 1663.79 7.60004C1680.99 10.2667 1695.05 15.9334 1705.99 24.6C1717.05 33.2667 1725.19 44.2 1730.39 57.4C1735.59 70.4667 1738.19 85.0667 1738.19 101.2C1738.19 117.333 1735.52 132 1730.19 145.2C1724.99 158.267 1716.85 169.133 1705.79 177.8C1694.85 186.467 1680.85 192.133 1663.79 194.8C1660.05 195.333 1655.79 195.733 1650.99 196C1646.19 196.267 1642.45 196.4 1639.79 196.4H1572.59V294H1518.19ZM1572.59 145.6H1637.39C1640.19 145.6 1643.25 145.467 1646.59 145.2C1649.92 144.933 1652.99 144.4 1655.79 143.6C1663.12 141.6 1668.79 138.267 1672.79 133.6C1676.79 128.8 1679.52 123.533 1680.99 117.8C1682.59 111.933 1683.39 106.4 1683.39 101.2C1683.39 96 1682.59 90.5334 1680.99 84.8C1679.52 78.9334 1676.79 73.6667 1672.79 69.0001C1668.79 64.2001 1663.12 60.8001 1655.79 58.8001C1652.99 58 1649.92 57.4667 1646.59 57.2001C1643.25 56.9334 1640.19 56.8 1637.39 56.8H1572.59V145.6Z" fill="#458FF6"/>
<path d="M185.87 810.95C147.71 810.95 114.762 802.647 87.0254 786.04C59.4654 769.433 38.1771 746.202 23.1604 716.345C8.32039 686.488 0.900391 651.773 0.900391 612.2C0.900391 572.627 8.32039 537.912 23.1604 508.055C38.1771 478.198 59.4654 454.967 87.0254 438.36C114.762 421.753 147.71 413.45 185.87 413.45C229.684 413.45 266.43 424.315 296.11 446.045C325.967 467.775 346.99 497.19 359.18 534.29L286.57 554.43C279.504 531.287 267.579 513.355 250.795 500.635C234.012 487.738 212.37 481.29 185.87 481.29C161.667 481.29 141.439 486.678 125.185 497.455C109.109 508.232 97.0071 523.425 88.8804 543.035C80.7537 562.645 76.6904 585.7 76.6904 612.2C76.6904 638.7 80.7537 661.755 88.8804 681.365C97.0071 700.975 109.109 716.168 125.185 726.945C141.439 737.722 161.667 743.11 185.87 743.11C212.37 743.11 234.012 736.662 250.795 723.765C267.579 710.868 279.504 692.937 286.57 669.97L359.18 690.11C346.99 727.21 325.967 756.625 296.11 778.355C266.43 800.085 229.684 810.95 185.87 810.95Z" fill="#458FF6"/>
<path d="M422.83 803V421.4H494.91V735.69H659.21V803H422.83Z" fill="#458FF6"/>
<path d="M709.568 803V421.4H781.648V803H709.568Z" fill="#458FF6"/>
<path d="M861.095 803V421.4H934.235L1100.12 675.8V421.4H1173.26V803H1100.12L934.235 548.6V803H861.095Z" fill="#458FF6"/>
<path d="M1252.51 803V421.4H1324.59V803H1252.51Z" fill="#458FF6"/>
<path d="M1567.8 810.95C1529.64 810.95 1496.7 802.647 1468.96 786.04C1441.4 769.433 1420.11 746.202 1405.09 716.345C1390.25 686.488 1382.83 651.773 1382.83 612.2C1382.83 572.627 1390.25 537.912 1405.09 508.055C1420.11 478.198 1441.4 454.967 1468.96 438.36C1496.7 421.753 1529.64 413.45 1567.8 413.45C1611.62 413.45 1648.36 424.315 1678.04 446.045C1707.9 467.775 1728.92 497.19 1741.11 534.29L1668.5 554.43C1661.44 531.287 1649.51 513.355 1632.73 500.635C1615.95 487.738 1594.3 481.29 1567.8 481.29C1543.6 481.29 1523.37 486.678 1507.12 497.455C1491.04 508.232 1478.94 523.425 1470.81 543.035C1462.69 562.645 1458.62 585.7 1458.62 612.2C1458.62 638.7 1462.69 661.755 1470.81 681.365C1478.94 700.975 1491.04 716.168 1507.12 726.945C1523.37 737.722 1543.6 743.11 1567.8 743.11C1594.3 743.11 1615.95 736.662 1632.73 723.765C1649.51 710.868 1661.44 692.937 1668.5 669.97L1741.11 690.11C1728.92 727.21 1707.9 756.625 1678.04 778.355C1648.36 800.085 1611.62 810.95 1567.8 810.95Z" fill="#458FF6"/>
</svg>
