<svg width="744" height="740" viewBox="0 0 744 740" fill="none" xmlns="http://www.w3.org/2000/svg">
<path d="M261.95 675.5C216.05 675.5 174.65 667.7 137.75 652.1C101.15 636.5 70.85 614.3 46.85 585.5C23.15 556.4 7.7 522.05 0.5 482.45L83.3 469.4C93.8 510.2 115.55 542.15 148.55 565.25C181.85 588.05 221 599.45 266 599.45C295.1 599.45 321.35 594.95 344.75 585.95C368.45 576.65 387.2 563.45 401 546.35C414.8 529.25 421.7 509 421.7 485.6C421.7 471.2 419.15 458.9 414.05 448.7C409.25 438.2 402.5 429.35 393.8 422.15C385.4 414.65 375.8 408.35 365 403.25C354.2 398.15 342.95 393.95 331.25 390.65L166.1 341.6C148.1 336.2 130.7 329.45 113.9 321.35C97.1 312.95 82.1 302.6 68.9 290.3C55.7 277.7 45.2 262.7 37.4 245.3C29.6 227.6 25.7 206.75 25.7 182.75C25.7 144.35 35.6 111.65 55.4 84.65C75.5 57.35 102.65 36.5 136.85 22.1C171.05 7.70001 209.6 0.65 252.5 0.949978C296 1.24999 334.85 9.05 369.05 24.35C403.55 39.35 432.05 60.95 454.55 89.15C477.35 117.35 492.65 151.1 500.45 190.4L415.4 205.25C410.9 178.85 400.85 156.2 385.25 137.3C369.95 118.1 350.75 103.4 327.65 93.2C304.55 82.7 279.2 77.3 251.6 77C225.2 76.7 201.35 80.9 180.05 89.6C158.75 98.3 141.8 110.45 129.2 126.05C116.6 141.35 110.3 159.05 110.3 179.15C110.3 198.95 116 215 127.4 227.3C138.8 239.3 152.75 248.9 169.25 256.1C186.05 263 202.4 268.7 218.3 273.2L341.6 308.75C355.7 312.65 371.9 318.05 390.2 324.95C408.8 331.85 426.8 341.6 444.2 354.2C461.6 366.5 476 383 487.4 403.7C498.8 424.1 504.5 449.9 504.5 481.1C504.5 512.3 498.2 540.05 485.6 564.35C473.3 588.65 456.05 609.05 433.85 625.55C411.65 641.75 385.85 654.05 356.45 662.45C327.05 671.15 295.55 675.5 261.95 675.5Z" fill="#458FF6" fill-opacity="0.8"/>
<path d="M517 740C462.667 740 416.667 727.833 379 703.5C341.333 679.167 312.667 645.667 293 603C273.667 560 263.667 510.667 263 455C263.667 398.333 274 348.667 294 306C314 263 342.833 229.667 380.5 206C418.167 182 463.833 170 517.5 170C572.167 170 619.667 183.333 660 210C700.667 236.667 728.5 273.167 743.5 319.5L671.5 342.5C658.833 310.167 638.667 285.167 611 267.5C583.667 249.5 552.333 240.5 517 240.5C477.333 240.5 444.5 249.667 418.5 268C392.5 286 373.167 311.167 360.5 343.5C347.833 375.833 341.333 413 341 455C341.667 519.667 356.667 571.667 386 611C415.333 650 459 669.5 517 669.5C553.667 669.5 584.833 661.167 610.5 644.5C636.5 627.5 656.167 602.833 669.5 570.5L743.5 592.5C723.5 640.5 694.167 677.167 655.5 702.5C616.833 727.5 570.667 740 517 740Z" fill="#458FF6"/>
</svg>
