<svg width="195" height="60" viewBox="0 0 195 60" fill="none" xmlns="http://www.w3.org/2000/svg">
<path d="M77.005 22.1777C75.4379 22.1777 74.0226 21.9014 72.7592 21.3487C71.5055 20.7861 70.4722 19.9866 69.6593 18.9503C68.8562 17.9041 68.3469 16.6605 68.1314 15.2195L72.3037 14.5977C72.5976 15.8216 73.2048 16.7641 74.1255 17.4254C75.0461 18.0867 76.0941 18.4173 77.2694 18.4173C77.9257 18.4173 78.5623 18.3137 79.1793 18.1064C79.7964 17.8992 80.3008 17.5932 80.6925 17.1885C81.0941 16.7839 81.2949 16.2855 81.2949 15.6933C81.2949 15.4761 81.2606 15.2689 81.192 15.0715C81.1333 14.8642 81.0304 14.6718 80.8835 14.4941C80.7366 14.3164 80.526 14.1487 80.2518 13.9907C79.9873 13.8328 79.6494 13.6897 79.2381 13.5614L73.7435 11.9329C73.3321 11.8144 72.8522 11.6467 72.3037 11.4295C71.7651 11.2124 71.2411 10.9015 70.7318 10.4968C70.2225 10.0922 69.7964 9.5592 69.4536 8.89792C69.1206 8.22678 68.9541 7.38291 68.9541 6.36632C68.9541 4.9352 69.3116 3.74589 70.0266 2.79839C70.7416 1.85089 71.6965 1.1452 72.8914 0.681324C74.0863 0.217443 75.4085 -0.00956179 76.8581 0.000308459C78.3174 0.0200478 79.6201 0.271727 80.766 0.755347C81.9119 1.23897 82.8718 1.94466 83.6455 2.87242C84.4193 3.79031 84.9775 4.91546 85.3203 6.24789L81.0011 6.98812C80.8443 6.29723 80.5554 5.71492 80.1343 5.24117C79.7131 4.76742 79.2087 4.40717 78.621 4.16043C78.0432 3.91368 77.4359 3.78044 76.7993 3.7607C76.1725 3.74096 75.5799 3.82979 75.0217 4.02718C74.4732 4.21471 74.0226 4.49106 73.67 4.85624C73.3272 5.22143 73.1558 5.6557 73.1558 6.15906C73.1558 6.62294 73.2979 7.00292 73.5819 7.29902C73.8659 7.58524 74.2234 7.81718 74.6544 7.99484C75.0853 8.17249 75.5261 8.32054 75.9766 8.43898L79.6494 9.4457C80.1979 9.59374 80.8052 9.79114 81.4712 10.0379C82.1372 10.2748 82.7738 10.6103 83.3811 11.0446C83.9981 11.469 84.5025 12.0316 84.8943 12.7323C85.2958 13.4331 85.4966 14.3214 85.4966 15.3972C85.4966 16.5421 85.2567 17.5439 84.7767 18.4025C84.3066 19.2513 83.67 19.957 82.8669 20.5196C82.0637 21.0723 81.1529 21.4868 80.1343 21.7632C79.1255 22.0396 78.0824 22.1777 77.005 22.1777Z" fill="white"/>
<path d="M87.2566 21.7336L93.7208 0.41484H99.6855L106.15 21.7336H102.036L96.2771 2.93164L96.6621 4.18831L97.0411 2.93164L91.3702 21.7336H87.2566ZM92.7098 17.2922L93.8439 13.5318H99.524L100.676 17.2922H92.7098Z" fill="white"/>
<path d="M108.783 21.7336V0.41484H112.838L122.035 14.6273V0.41484H126.089V21.7336H122.035L112.838 7.52109V21.7336H108.783Z" fill="white"/>
<path d="M128.72 21.7336L135.184 0.41484H141.149L147.613 21.7336H143.499L137.74 2.93164L138.125 4.18831L138.504 2.93164L132.833 21.7336H128.72ZM134.173 17.2922L135.307 13.5318H140.987L142.139 17.2922H134.173Z" fill="white"/>
<path d="M150.246 21.7336V0.41484H159.178C159.384 0.41484 159.658 0.424709 160.001 0.444449C160.354 0.454319 160.667 0.483928 160.941 0.533277C162.205 0.730673 163.238 1.15014 164.041 1.79167C164.854 2.43321 165.452 3.24253 165.834 4.21964C166.216 5.18688 166.407 6.26763 166.407 7.46187C166.407 9.2483 165.966 10.7781 165.084 12.0513C164.203 13.3147 162.822 14.0944 160.941 14.3905L159.178 14.5089H154.242V21.7336H150.246ZM162.175 21.7336L158.003 13.058L158.701 14.5089H159.178L160.941 14.3905L161.385 14.3097L161.973 14.1654L162.45 14.0113L162.881 13.8381L162.117 12.2586L166.7 21.7336H162.175ZM154.242 10.7485H159.002C159.208 10.7485 159.433 10.7386 159.678 10.7189C159.923 10.6992 160.148 10.6597 160.354 10.6005C160.892 10.4524 161.309 10.2057 161.602 9.86023C161.896 9.50492 162.097 9.11506 162.205 8.69066C162.322 8.25639 162.381 7.84679 162.381 7.46187C162.381 7.07695 162.322 6.67229 162.205 6.24789C162.097 5.81362 161.896 5.42376 161.602 5.07832C161.309 4.723 160.892 4.47132 160.354 4.32328C160.148 4.26406 159.923 4.22458 159.678 4.20484C159.433 4.1851 159.208 4.17523 159.002 4.17523H154.242V10.7485Z" fill="white"/>
<path d="M170.224 21.7336V0.41484H174.22V21.7336H170.224Z" fill="white"/>
<path d="M178.625 21.7336V0.41484H187.557C187.763 0.41484 188.037 0.424709 188.38 0.444449C188.732 0.454319 189.046 0.483928 189.32 0.533277C190.583 0.730673 191.617 1.15014 192.42 1.79167C193.233 2.43321 193.83 3.24253 194.212 4.21964C194.594 5.18688 194.785 6.26763 194.785 7.46187C194.785 8.65611 194.589 9.74179 194.197 10.7189C193.815 11.6861 193.218 12.4905 192.405 13.1321C191.602 13.7736 190.574 14.1931 189.32 14.3905C189.046 14.4299 188.732 14.4596 188.38 14.4793C188.027 14.499 187.753 14.5089 187.557 14.5089H182.621V21.7336H178.625ZM182.621 10.7485H187.381C187.586 10.7485 187.812 10.7386 188.056 10.7189C188.301 10.6992 188.527 10.6597 188.732 10.6005C189.271 10.4524 189.687 10.2057 189.981 9.86023C190.275 9.50492 190.476 9.11506 190.583 8.69066C190.701 8.25639 190.76 7.84679 190.76 7.46187C190.76 7.07695 190.701 6.67229 190.583 6.24789C190.476 5.81362 190.275 5.42376 189.981 5.07832C189.687 4.723 189.271 4.47132 188.732 4.32328C188.527 4.26406 188.301 4.22458 188.056 4.20484C187.812 4.1851 187.586 4.17523 187.381 4.17523H182.621V10.7485Z" fill="white"/>
<path d="M19.2053 52.1942C15.8337 52.1942 12.7925 51.6168 10.082 50.4621C7.39345 49.3073 5.1677 47.664 3.40473 45.5321C1.6638 43.378 0.528891 40.8353 0 37.904L6.08224 36.938C6.85354 39.9582 8.45123 42.3232 10.8753 44.0331C13.3214 45.7209 16.1973 46.5647 19.5028 46.5647C21.6404 46.5647 23.5687 46.2316 25.2876 45.5654C27.0285 44.877 28.4058 43.8999 29.4195 42.6341C30.4332 41.3683 30.9401 39.8693 30.9401 38.1372C30.9401 37.0712 30.7528 36.1608 30.3782 35.4057C30.0256 34.6285 29.5297 33.9734 28.8906 33.4404C28.2736 32.8852 27.5684 32.4189 26.7751 32.0413C25.9817 31.6638 25.1554 31.3529 24.2959 31.1087L12.1645 27.4778C10.8423 27.0781 9.5641 26.5784 8.33003 25.9788C7.09595 25.357 5.99409 24.5909 5.02446 23.6804C4.05483 22.7477 3.28353 21.6374 2.71056 20.3493C2.1376 19.0391 1.85112 17.4957 1.85112 15.7192C1.85112 12.8767 2.57834 10.4561 4.03279 8.45748C5.50928 6.43664 7.50363 4.89326 10.0159 3.82732C12.5281 2.76138 15.3599 2.23952 18.5112 2.26172C21.7066 2.28393 24.5604 2.86131 27.0726 3.99387C29.6069 5.10422 31.7004 6.70313 33.3532 8.79059C35.028 10.8781 36.1519 13.3763 36.7248 16.2855L30.4773 17.3847C30.1468 15.4305 29.4085 13.7539 28.2626 12.3548C27.1387 10.9336 25.7283 9.84542 24.0315 9.09038C22.3346 8.31314 20.4725 7.91341 18.4451 7.8912C16.5058 7.869 14.7538 8.17989 13.1892 8.8239C11.6246 9.4679 10.3795 10.3673 9.45392 11.5221C8.52836 12.6546 8.06558 13.9648 8.06558 15.4527C8.06558 16.9184 8.48429 18.1064 9.3217 19.0169C10.1591 19.9052 11.1838 20.6158 12.3959 21.1488C13.63 21.6596 14.831 22.0815 15.9989 22.4146L25.0562 25.0461C26.0919 25.3348 27.2819 25.7346 28.6262 26.2453C29.9925 26.7561 31.3147 27.4778 32.5929 28.4105C33.871 29.321 34.9288 30.5424 35.7662 32.0747C36.6036 33.5847 37.0223 35.4945 37.0223 37.8041C37.0223 40.1136 36.5596 42.1678 35.634 43.9665C34.7305 45.7653 33.4633 47.2754 31.8326 48.4968C30.2019 49.6959 28.3067 50.6064 26.147 51.2282C23.9874 51.8722 21.6735 52.1942 19.2053 52.1942Z" fill="white" fill-opacity="0.8"/>
<path d="M37.9405 56.9687C33.9494 56.9687 30.5704 56.0681 27.8035 54.2669C25.0366 52.4656 22.9308 49.9859 21.4862 46.8275C20.066 43.6445 19.3314 39.9927 19.2825 35.8721C19.3314 31.6774 20.0905 28.0009 21.5596 24.8426C23.0288 21.6596 25.1468 19.1921 27.9137 17.4402C30.6805 15.6637 34.0351 14.7754 37.9773 14.7754C41.9929 14.7754 45.4821 15.7624 48.4449 17.7363C51.4322 19.7103 53.4767 22.4121 54.5786 25.8419L49.2897 27.5444C48.3592 25.151 46.8778 23.3004 44.8455 21.9927C42.8377 20.6602 40.536 19.994 37.9405 19.994C35.0268 19.994 32.6149 20.6726 30.705 22.0297C28.7952 23.3621 27.375 25.225 26.4445 27.6185C25.5141 30.0119 25.0366 32.7631 25.0121 35.8721C25.0611 40.6589 26.1629 44.5081 28.3177 47.4197C30.4724 50.3066 33.68 51.7501 37.9405 51.7501C40.634 51.7501 42.9234 51.1332 44.8088 49.8995C46.7187 48.6411 48.1633 46.8152 49.1427 44.4218L54.5786 46.0503C53.1094 49.6034 50.9547 52.3176 48.1143 54.1929C45.274 56.0434 41.8827 56.9687 37.9405 56.9687Z" fill="white"/>
<path d="M80.7564 60C77.9533 60 75.533 59.3854 73.4956 58.1561C71.4711 56.9268 69.9073 55.2071 68.8042 52.997C67.7141 50.7869 67.1691 48.2172 67.1691 45.2878C67.1691 42.3585 67.7141 39.7888 68.8042 37.5787C69.9073 35.3686 71.4711 33.6489 73.4956 32.4196C75.533 31.1903 77.9533 30.5757 80.7564 30.5757C83.9748 30.5757 86.6741 31.3799 88.8543 32.9885C91.0475 34.597 92.5918 36.7744 93.4873 39.5207L88.1536 41.0115C87.6345 39.2984 86.7585 37.971 85.5256 37.0294C84.2928 36.0748 82.703 35.5974 80.7564 35.5974C78.9785 35.5974 77.4926 35.9963 76.2987 36.794C75.1178 37.5917 74.2288 38.7164 73.6318 40.168C73.0349 41.6196 72.7364 43.3262 72.7364 45.2878C72.7364 47.2495 73.0349 48.9561 73.6318 50.4077C74.2288 51.8593 75.1178 52.9839 76.2987 53.7817C77.4926 54.5794 78.9785 54.9782 80.7564 54.9782C82.703 54.9782 84.2928 54.5009 85.5256 53.5463C86.7585 52.5916 87.6345 51.2642 88.1536 49.5642L93.4873 51.055C92.5918 53.8013 91.0475 55.9787 88.8543 57.5872C86.6741 59.1957 83.9748 60 80.7564 60Z" fill="white"/>
<path d="M98.1628 59.4115V31.1642H103.458V54.429H115.527V59.4115H98.1628Z" fill="white"/>
<path d="M119.226 59.4115V31.1642H124.521V59.4115H119.226Z" fill="white"/>
<path d="M130.356 59.4115V31.1642H135.729L147.915 49.9957V31.1642H153.287V59.4115H147.915L135.729 40.5799V59.4115H130.356Z" fill="white"/>
<path d="M159.108 59.4115V31.1642H164.403V59.4115H159.108Z" fill="white"/>
<path d="M182.269 60C179.466 60 177.046 59.3854 175.008 58.1561C172.984 56.9268 171.42 55.2071 170.317 52.997C169.227 50.7869 168.682 48.2172 168.682 45.2878C168.682 42.3585 169.227 39.7888 170.317 37.5787C171.42 35.3686 172.984 33.6489 175.008 32.4196C177.046 31.1903 179.466 30.5757 182.269 30.5757C185.488 30.5757 188.187 31.3799 190.367 32.9885C192.56 34.597 194.105 36.7744 195 39.5207L189.666 41.0115C189.147 39.2984 188.271 37.971 187.038 37.0294C185.805 36.0748 184.216 35.5974 182.269 35.5974C180.491 35.5974 179.005 35.9963 177.811 36.794C176.63 37.5917 175.742 38.7164 175.145 40.168C174.548 41.6196 174.249 43.3262 174.249 45.2878C174.249 47.2495 174.548 48.9561 175.145 50.4077C175.742 51.8593 176.63 52.9839 177.811 53.7817C179.005 54.5794 180.491 54.9782 182.269 54.9782C184.216 54.9782 185.805 54.5009 187.038 53.5463C188.271 52.5916 189.147 51.2642 189.666 49.5642L195 51.055C194.105 53.8013 192.56 55.9787 190.367 57.5872C188.187 59.1957 185.488 60 182.269 60Z" fill="white"/>
</svg>
