<svg width="31" height="19" viewBox="0 0 31 19" fill="none" xmlns="http://www.w3.org/2000/svg">
<path fill-rule="evenodd" clip-rule="evenodd" d="M2.88171 8.17875C4.25181 6.62781 6.33067 4.85156 9.00015 3.64187C7.54891 5.24756 6.74683 7.33567 6.74994 9.5C6.74994 11.7531 7.60161 13.8072 9.00015 15.3581C6.3314 14.1484 4.25181 12.3722 2.88171 10.8213C2.55536 10.4586 2.37478 9.98791 2.37478 9.5C2.37478 9.01209 2.55536 8.54145 2.88171 8.17875ZM1.78869 7.21333C4.27369 4.40021 8.9965 0.817813 15.3701 0.750729L15.4999 0.75H15.551C22.0158 0.75 26.8042 4.37396 29.3125 7.21333C29.8743 7.84256 30.1847 8.65652 30.1847 9.5C30.1847 10.3435 29.8743 11.1574 29.3125 11.7867C26.8042 14.626 22.0158 18.25 15.551 18.25H15.4999L15.3701 18.2493C8.99723 18.1822 4.27369 14.5998 1.78869 11.7867C1.22697 11.1574 0.916504 10.3435 0.916504 9.5C0.916504 8.65652 1.22697 7.84256 1.78869 7.21333ZM15.5204 2.20833L15.3884 2.20906C11.4122 2.26885 8.20827 5.51 8.20827 9.5C8.20827 13.49 11.413 16.7311 15.3884 16.7909L15.5204 16.7917C19.5381 16.7807 22.7916 13.5199 22.7916 9.5C22.7916 5.4801 19.5381 2.21927 15.5204 2.20833ZM24.2499 9.5C24.2499 11.7896 23.3698 13.875 21.9297 15.4347C24.6816 14.2243 26.8203 12.405 28.2195 10.8213C28.5459 10.4586 28.7264 9.98791 28.7264 9.5C28.7264 9.01209 28.5459 8.54145 28.2195 8.17875C26.8203 6.595 24.6816 4.77573 21.9297 3.56531C23.4242 5.17993 24.253 7.29988 24.2499 9.5ZM15.551 13.875C16.2902 13.8752 17.0174 13.688 17.6647 13.3311C18.312 12.9741 18.8583 12.4589 19.2526 11.8336C19.6469 11.2084 19.8764 10.4934 19.9195 9.75543C19.9627 9.01748 19.8181 8.28062 19.4994 7.61365C19.3649 7.75293 19.204 7.86403 19.0261 7.94046C18.8481 8.01689 18.6568 8.05712 18.4631 8.0588C18.2695 8.06049 18.0775 8.02359 17.8982 7.95026C17.719 7.87693 17.5562 7.76865 17.4193 7.63172C17.2823 7.4948 17.174 7.33197 17.1007 7.15275C17.0274 6.97352 16.9905 6.78149 16.9922 6.58785C16.9939 6.39422 17.0341 6.20285 17.1105 6.02493C17.187 5.84701 17.298 5.68609 17.4373 5.55156C16.8448 5.26881 16.1963 5.12303 15.5398 5.12502C14.8833 5.12702 14.2356 5.27674 13.6448 5.56309C13.0541 5.84944 12.5353 6.26508 12.127 6.7792C11.7187 7.29332 11.4314 7.89273 11.2863 8.53301C11.1412 9.17329 11.142 9.83802 11.2888 10.4779C11.4355 11.1178 11.7244 11.7165 12.134 12.2296C12.5436 12.7426 13.0634 13.157 13.6549 13.4418C14.2464 13.7266 14.8945 13.8747 15.551 13.875Z" fill="#6A6767"/>
</svg>
